<?xml version="1.0" standalone="no"?>
<!DOCTYPE svg PUBLIC "-//W3C//DTD SVG 20010904//EN"
 "http://www.w3.org/TR/2001/REC-SVG-20010904/DTD/svg10.dtd">
<svg version="1.0" xmlns="http://www.w3.org/2000/svg"
 width="30.000000pt" height="30.000000pt" viewBox="0 0 512.000000 512.000000"
 preserveAspectRatio="xMidYMid meet">

<g transform="translate(0.000000,512.000000) scale(0.100000,-0.100000)"
fill="#000000" stroke="none">
<path d="M2375 4854 c-631 -67 -1163 -337 -1552 -789 -286 -332 -471 -735
-540 -1175 -21 -141 -24 -489 -5 -625 37 -254 108 -488 217 -710 342 -700 985
-1164 1770 -1277 136 -19 484 -16 625 5 834 130 1510 671 1815 1451 54 137
107 336 132 496 27 172 24 510 -5 685 -69 406 -229 768 -477 1080 -76 97 -252
273 -349 351 -317 256 -704 427 -1106 489 -101 15 -442 28 -525 19z m1696
-1155 c56 -19 100 -59 125 -113 l24 -51 0 -969 c0 -738 -3 -978 -12 -1010 -16
-52 -84 -121 -135 -136 -27 -8 -457 -10 -1535 -8 l-1496 3 -44 30 c-28 20 -52
49 -71 85 l-27 54 2 986 3 987 30 48 c22 36 45 57 84 77 l53 28 1483 0 c1081
0 1491 -3 1516 -11z"/>
<path d="M1166 3581 c22 -20 1375 -982 1387 -987 9 -3 300 199 703 486 379
271 693 496 698 501 6 5 -569 9 -1394 9 -776 0 -1400 -4 -1394 -9z"/>
<path d="M1026 3523 c-3 -3 -6 -436 -6 -960 0 -1025 -1 -995 49 -1023 27 -14
2955 -14 2982 0 50 28 49 -2 49 1023 0 524 -3 956 -6 959 -3 4 -345 -236 -761
-533 -415 -296 -763 -539 -772 -539 -14 0 -1075 749 -1482 1046 -25 18 -49 31
-53 27z"/>
</g>
</svg>
